<mxfile host="app.diagrams.net" modified="2023-02-23T02:58:14.236Z" agent="5.0 (Macintosh; Intel Mac OS X 10_15_7) AppleWebKit/537.36 (KHTML, like Gecko) Chrome/109.0.0.0 Safari/537.36" etag="PlCDgXsVe7uxkre3ekmz" version="20.8.20" type="github">
  <diagram id="C5RBs43oDa-KdzZeNtuy" name="Page-1">
    <mxGraphModel dx="954" dy="562" grid="1" gridSize="10" guides="1" tooltips="1" connect="1" arrows="1" fold="1" page="1" pageScale="1" pageWidth="827" pageHeight="1169" math="0" shadow="0">
      <root>
        <mxCell id="WIyWlLk6GJQsqaUBKTNV-0" />
        <mxCell id="WIyWlLk6GJQsqaUBKTNV-1" parent="WIyWlLk6GJQsqaUBKTNV-0" />
        <mxCell id="DckrIjn_-fezl6wD4Rm--4" style="edgeStyle=orthogonalEdgeStyle;rounded=0;orthogonalLoop=1;jettySize=auto;html=1;entryX=0;entryY=0.5;entryDx=0;entryDy=0;" parent="WIyWlLk6GJQsqaUBKTNV-1" source="DckrIjn_-fezl6wD4Rm--0" target="DckrIjn_-fezl6wD4Rm--2" edge="1">
          <mxGeometry relative="1" as="geometry" />
        </mxCell>
        <mxCell id="DckrIjn_-fezl6wD4Rm--0" value="url请求" style="strokeWidth=2;html=1;shape=mxgraph.flowchart.start_1;whiteSpace=wrap;" parent="WIyWlLk6GJQsqaUBKTNV-1" vertex="1">
          <mxGeometry x="50" y="200" width="80" height="50" as="geometry" />
        </mxCell>
        <mxCell id="DckrIjn_-fezl6wD4Rm--34" style="rounded=0;orthogonalLoop=1;jettySize=auto;html=1;exitX=1;exitY=0.5;exitDx=0;exitDy=0;entryX=0;entryY=0.5;entryDx=0;entryDy=0;" parent="WIyWlLk6GJQsqaUBKTNV-1" source="DckrIjn_-fezl6wD4Rm--2" target="DckrIjn_-fezl6wD4Rm--29" edge="1">
          <mxGeometry relative="1" as="geometry">
            <mxPoint x="360" y="225" as="targetPoint" />
          </mxGeometry>
        </mxCell>
        <mxCell id="DckrIjn_-fezl6wD4Rm--2" value="白名单校验&lt;br&gt;&lt;div style=&quot;&quot;&gt;&lt;span style=&quot;background-color: initial;&quot;&gt;请求鉴权&lt;/span&gt;&lt;/div&gt;服务转发" style="rounded=0;whiteSpace=wrap;html=1;align=center;fillColor=#dae8fc;strokeColor=#6c8ebf;" parent="WIyWlLk6GJQsqaUBKTNV-1" vertex="1">
          <mxGeometry x="180" y="198.13" width="100" height="53.75" as="geometry" />
        </mxCell>
        <mxCell id="DckrIjn_-fezl6wD4Rm--3" value="网关服务&lt;br&gt;ep-gateway" style="text;html=1;strokeColor=none;fillColor=none;align=center;verticalAlign=middle;whiteSpace=wrap;rounded=0;" parent="WIyWlLk6GJQsqaUBKTNV-1" vertex="1">
          <mxGeometry x="180" y="166.25" width="95" height="30" as="geometry" />
        </mxCell>
        <mxCell id="DckrIjn_-fezl6wD4Rm--5" value="" style="endArrow=none;html=1;rounded=0;dashed=1;startArrow=none;" parent="WIyWlLk6GJQsqaUBKTNV-1" source="DckrIjn_-fezl6wD4Rm--55" edge="1">
          <mxGeometry width="50" height="50" relative="1" as="geometry">
            <mxPoint x="230" y="280" as="sourcePoint" />
            <mxPoint x="720" y="280" as="targetPoint" />
          </mxGeometry>
        </mxCell>
        <mxCell id="DckrIjn_-fezl6wD4Rm--6" value="redis" style="strokeWidth=2;html=1;shape=mxgraph.flowchart.direct_data;whiteSpace=wrap;fillColor=#ffe6cc;strokeColor=#d79b00;" parent="WIyWlLk6GJQsqaUBKTNV-1" vertex="1">
          <mxGeometry x="180" y="300" width="60" height="40" as="geometry" />
        </mxCell>
        <mxCell id="DckrIjn_-fezl6wD4Rm--7" value="应用缓存" style="strokeWidth=2;html=1;shape=mxgraph.flowchart.direct_data;whiteSpace=wrap;fillColor=#ffe6cc;strokeColor=#d79b00;" parent="WIyWlLk6GJQsqaUBKTNV-1" vertex="1">
          <mxGeometry x="270" y="300" width="60" height="40" as="geometry" />
        </mxCell>
        <mxCell id="DckrIjn_-fezl6wD4Rm--8" value="服务缓存" style="strokeWidth=2;html=1;shape=mxgraph.flowchart.direct_data;whiteSpace=wrap;fillColor=#ffe6cc;strokeColor=#d79b00;" parent="WIyWlLk6GJQsqaUBKTNV-1" vertex="1">
          <mxGeometry x="360" y="300" width="60" height="40" as="geometry" />
        </mxCell>
        <mxCell id="DckrIjn_-fezl6wD4Rm--9" value="白名单缓存" style="strokeWidth=2;html=1;shape=mxgraph.flowchart.direct_data;whiteSpace=wrap;fillColor=#ffe6cc;strokeColor=#d79b00;" parent="WIyWlLk6GJQsqaUBKTNV-1" vertex="1">
          <mxGeometry x="450" y="300" width="60" height="40" as="geometry" />
        </mxCell>
        <mxCell id="DckrIjn_-fezl6wD4Rm--10" value="redis" style="strokeWidth=2;html=1;shape=mxgraph.flowchart.direct_data;whiteSpace=wrap;fillColor=#ffe6cc;strokeColor=#d79b00;" parent="WIyWlLk6GJQsqaUBKTNV-1" vertex="1">
          <mxGeometry x="550" y="300" width="60" height="40" as="geometry" />
        </mxCell>
        <mxCell id="DckrIjn_-fezl6wD4Rm--12" value="" style="endArrow=none;html=1;rounded=0;dashed=1;" parent="WIyWlLk6GJQsqaUBKTNV-1" edge="1">
          <mxGeometry width="50" height="50" relative="1" as="geometry">
            <mxPoint x="64" y="280" as="sourcePoint" />
            <mxPoint x="190" y="280" as="targetPoint" />
            <Array as="points">
              <mxPoint x="130" y="280" />
            </Array>
          </mxGeometry>
        </mxCell>
        <mxCell id="DckrIjn_-fezl6wD4Rm--11" value="" style="shape=singleArrow;direction=north;whiteSpace=wrap;html=1;" parent="WIyWlLk6GJQsqaUBKTNV-1" vertex="1">
          <mxGeometry x="195" y="260" width="10" height="30" as="geometry" />
        </mxCell>
        <mxCell id="DckrIjn_-fezl6wD4Rm--14" value="" style="endArrow=none;html=1;rounded=0;dashed=1;startArrow=none;" parent="WIyWlLk6GJQsqaUBKTNV-1" source="DckrIjn_-fezl6wD4Rm--11" target="DckrIjn_-fezl6wD4Rm--13" edge="1">
          <mxGeometry width="50" height="50" relative="1" as="geometry">
            <mxPoint x="200" y="280" as="sourcePoint" />
            <mxPoint x="764" y="280" as="targetPoint" />
          </mxGeometry>
        </mxCell>
        <mxCell id="DckrIjn_-fezl6wD4Rm--13" value="" style="shape=singleArrow;direction=north;whiteSpace=wrap;html=1;" parent="WIyWlLk6GJQsqaUBKTNV-1" vertex="1">
          <mxGeometry x="205" y="260" width="10" height="30" as="geometry" />
        </mxCell>
        <mxCell id="DckrIjn_-fezl6wD4Rm--16" value="" style="endArrow=none;html=1;rounded=0;dashed=1;startArrow=none;" parent="WIyWlLk6GJQsqaUBKTNV-1" source="DckrIjn_-fezl6wD4Rm--13" target="DckrIjn_-fezl6wD4Rm--15" edge="1">
          <mxGeometry width="50" height="50" relative="1" as="geometry">
            <mxPoint x="215" y="280" as="sourcePoint" />
            <mxPoint x="764" y="280" as="targetPoint" />
          </mxGeometry>
        </mxCell>
        <mxCell id="DckrIjn_-fezl6wD4Rm--15" value="" style="shape=singleArrow;direction=north;whiteSpace=wrap;html=1;" parent="WIyWlLk6GJQsqaUBKTNV-1" vertex="1">
          <mxGeometry x="215" y="260" width="10" height="30" as="geometry" />
        </mxCell>
        <mxCell id="DckrIjn_-fezl6wD4Rm--20" value="" style="endArrow=none;html=1;rounded=0;dashed=1;startArrow=none;" parent="WIyWlLk6GJQsqaUBKTNV-1" source="DckrIjn_-fezl6wD4Rm--24" edge="1">
          <mxGeometry width="50" height="50" relative="1" as="geometry">
            <mxPoint x="60" y="360" as="sourcePoint" />
            <mxPoint x="720" y="360" as="targetPoint" />
          </mxGeometry>
        </mxCell>
        <mxCell id="DckrIjn_-fezl6wD4Rm--21" value="1、应用管理&lt;br&gt;2、服务管理&lt;br&gt;3、刷新redis缓存" style="rounded=0;whiteSpace=wrap;html=1;align=left;fillColor=#d5e8d4;strokeColor=#82b366;" parent="WIyWlLk6GJQsqaUBKTNV-1" vertex="1">
          <mxGeometry x="175" y="390" width="100" height="53.75" as="geometry" />
        </mxCell>
        <mxCell id="DckrIjn_-fezl6wD4Rm--23" value="" style="endArrow=none;html=1;rounded=0;dashed=1;startArrow=none;" parent="WIyWlLk6GJQsqaUBKTNV-1" edge="1">
          <mxGeometry width="50" height="50" relative="1" as="geometry">
            <mxPoint x="60" y="360" as="sourcePoint" />
            <mxPoint x="190" y="360" as="targetPoint" />
          </mxGeometry>
        </mxCell>
        <mxCell id="DckrIjn_-fezl6wD4Rm--22" value="" style="shape=singleArrow;direction=north;whiteSpace=wrap;html=1;" parent="WIyWlLk6GJQsqaUBKTNV-1" vertex="1">
          <mxGeometry x="195" y="350" width="10" height="30" as="geometry" />
        </mxCell>
        <mxCell id="DckrIjn_-fezl6wD4Rm--25" value="" style="shape=singleArrow;direction=north;whiteSpace=wrap;html=1;" parent="WIyWlLk6GJQsqaUBKTNV-1" vertex="1">
          <mxGeometry x="205" y="350" width="10" height="30" as="geometry" />
        </mxCell>
        <mxCell id="DckrIjn_-fezl6wD4Rm--26" value="" style="endArrow=none;html=1;rounded=0;dashed=1;startArrow=none;" parent="WIyWlLk6GJQsqaUBKTNV-1" source="DckrIjn_-fezl6wD4Rm--22" target="DckrIjn_-fezl6wD4Rm--24" edge="1">
          <mxGeometry width="50" height="50" relative="1" as="geometry">
            <mxPoint x="205" y="364.9545454545455" as="sourcePoint" />
            <mxPoint x="750" y="360" as="targetPoint" />
          </mxGeometry>
        </mxCell>
        <mxCell id="DckrIjn_-fezl6wD4Rm--24" value="" style="shape=singleArrow;direction=north;whiteSpace=wrap;html=1;" parent="WIyWlLk6GJQsqaUBKTNV-1" vertex="1">
          <mxGeometry x="215" y="350" width="10" height="30" as="geometry" />
        </mxCell>
        <mxCell id="DckrIjn_-fezl6wD4Rm--28" value="网关管理服务&lt;br&gt;ep-gateway-admin" style="text;html=1;strokeColor=none;fillColor=none;align=center;verticalAlign=middle;whiteSpace=wrap;rounded=0;" parent="WIyWlLk6GJQsqaUBKTNV-1" vertex="1">
          <mxGeometry x="160" y="450" width="130" height="30" as="geometry" />
        </mxCell>
        <mxCell id="DckrIjn_-fezl6wD4Rm--35" style="edgeStyle=none;rounded=0;orthogonalLoop=1;jettySize=auto;html=1;entryX=0;entryY=0.5;entryDx=0;entryDy=0;" parent="WIyWlLk6GJQsqaUBKTNV-1" source="DckrIjn_-fezl6wD4Rm--29" edge="1">
          <mxGeometry relative="1" as="geometry">
            <mxPoint x="530" y="223.125" as="targetPoint" />
          </mxGeometry>
        </mxCell>
        <mxCell id="DckrIjn_-fezl6wD4Rm--29" value="请求校验&lt;br&gt;业务数据(部分)" style="rounded=0;whiteSpace=wrap;html=1;align=center;fillColor=#dae8fc;strokeColor=#6c8ebf;" parent="WIyWlLk6GJQsqaUBKTNV-1" vertex="1">
          <mxGeometry x="356" y="198.13" width="106" height="53.75" as="geometry" />
        </mxCell>
        <mxCell id="DckrIjn_-fezl6wD4Rm--31" value="web服务&lt;br&gt;ep-front-web" style="text;html=1;strokeColor=none;fillColor=none;align=center;verticalAlign=middle;whiteSpace=wrap;rounded=0;" parent="WIyWlLk6GJQsqaUBKTNV-1" vertex="1">
          <mxGeometry x="364" y="166.25" width="86" height="30" as="geometry" />
        </mxCell>
        <mxCell id="DckrIjn_-fezl6wD4Rm--45" value="项目启动同步白名单数据到redis缓存" style="whiteSpace=wrap;html=1;rounded=1;arcSize=50;align=center;verticalAlign=middle;strokeWidth=1;autosize=1;spacing=4;treeFolding=1;treeMoving=1;newEdgeStyle={&quot;edgeStyle&quot;:&quot;entityRelationEdgeStyle&quot;,&quot;startArrow&quot;:&quot;none&quot;,&quot;endArrow&quot;:&quot;none&quot;,&quot;segment&quot;:10,&quot;curved&quot;:1,&quot;sourcePerimeterSpacing&quot;:0,&quot;targetPerimeterSpacing&quot;:0};" parent="WIyWlLk6GJQsqaUBKTNV-1" vertex="1">
          <mxGeometry x="640" y="295" width="117" height="40" as="geometry" />
        </mxCell>
        <mxCell id="DckrIjn_-fezl6wD4Rm--46" value="" style="edgeStyle=entityRelationEdgeStyle;startArrow=none;endArrow=none;segment=10;curved=1;sourcePerimeterSpacing=0;targetPerimeterSpacing=0;rounded=0;exitX=0;exitY=0;exitDx=16;exitDy=3.5;exitPerimeter=0;" parent="WIyWlLk6GJQsqaUBKTNV-1" target="DckrIjn_-fezl6wD4Rm--45" edge="1">
          <mxGeometry relative="1" as="geometry">
            <mxPoint x="596.5" y="271" as="sourcePoint" />
          </mxGeometry>
        </mxCell>
        <mxCell id="DckrIjn_-fezl6wD4Rm--48" value="" style="endArrow=none;html=1;rounded=0;dashed=1;startArrow=none;" parent="WIyWlLk6GJQsqaUBKTNV-1" target="DckrIjn_-fezl6wD4Rm--47" edge="1">
          <mxGeometry width="50" height="50" relative="1" as="geometry">
            <mxPoint x="230" y="280" as="sourcePoint" />
            <mxPoint x="720" y="280" as="targetPoint" />
          </mxGeometry>
        </mxCell>
        <mxCell id="DckrIjn_-fezl6wD4Rm--47" value="" style="shape=singleArrow;direction=south;whiteSpace=wrap;html=1;" parent="WIyWlLk6GJQsqaUBKTNV-1" vertex="1">
          <mxGeometry x="384" y="260" width="10" height="30" as="geometry" />
        </mxCell>
        <mxCell id="DckrIjn_-fezl6wD4Rm--49" value="" style="shape=singleArrow;direction=south;whiteSpace=wrap;html=1;" parent="WIyWlLk6GJQsqaUBKTNV-1" vertex="1">
          <mxGeometry x="394" y="260" width="10" height="30" as="geometry" />
        </mxCell>
        <mxCell id="DckrIjn_-fezl6wD4Rm--50" value="" style="shape=singleArrow;direction=south;whiteSpace=wrap;html=1;" parent="WIyWlLk6GJQsqaUBKTNV-1" vertex="1">
          <mxGeometry x="404" y="260" width="10" height="30" as="geometry" />
        </mxCell>
        <mxCell id="DckrIjn_-fezl6wD4Rm--53" style="edgeStyle=none;rounded=0;orthogonalLoop=1;jettySize=auto;html=1;exitX=0.5;exitY=0;exitDx=0;exitDy=0;" parent="WIyWlLk6GJQsqaUBKTNV-1" source="DckrIjn_-fezl6wD4Rm--31" target="DckrIjn_-fezl6wD4Rm--31" edge="1">
          <mxGeometry relative="1" as="geometry" />
        </mxCell>
        <mxCell id="DckrIjn_-fezl6wD4Rm--54" value="" style="shape=singleArrow;direction=south;whiteSpace=wrap;html=1;" parent="WIyWlLk6GJQsqaUBKTNV-1" vertex="1">
          <mxGeometry x="565" y="260" width="10" height="30" as="geometry" />
        </mxCell>
        <mxCell id="DckrIjn_-fezl6wD4Rm--56" value="" style="endArrow=none;html=1;rounded=0;dashed=1;startArrow=none;" parent="WIyWlLk6GJQsqaUBKTNV-1" source="DckrIjn_-fezl6wD4Rm--47" target="DckrIjn_-fezl6wD4Rm--55" edge="1">
          <mxGeometry width="50" height="50" relative="1" as="geometry">
            <mxPoint x="394" y="275.0755287009064" as="sourcePoint" />
            <mxPoint x="720" y="280" as="targetPoint" />
          </mxGeometry>
        </mxCell>
        <mxCell id="DckrIjn_-fezl6wD4Rm--55" value="" style="shape=singleArrow;direction=south;whiteSpace=wrap;html=1;" parent="WIyWlLk6GJQsqaUBKTNV-1" vertex="1">
          <mxGeometry x="575" y="260" width="10" height="30" as="geometry" />
        </mxCell>
        <mxCell id="DckrIjn_-fezl6wD4Rm--57" value="" style="shape=singleArrow;direction=south;whiteSpace=wrap;html=1;" parent="WIyWlLk6GJQsqaUBKTNV-1" vertex="1">
          <mxGeometry x="585" y="260" width="10" height="30" as="geometry" />
        </mxCell>
        <mxCell id="vqeSHZi6zr3soxNU2i5v-0" value="" style="rounded=0;whiteSpace=wrap;html=1;" vertex="1" parent="WIyWlLk6GJQsqaUBKTNV-1">
          <mxGeometry x="530" y="130" width="140" height="121.88" as="geometry" />
        </mxCell>
        <mxCell id="vqeSHZi6zr3soxNU2i5v-1" value="ep-service-api" style="rounded=1;whiteSpace=wrap;html=1;fillColor=#dae8fc;strokeColor=#6c8ebf;" vertex="1" parent="WIyWlLk6GJQsqaUBKTNV-1">
          <mxGeometry x="540" y="136.25" width="120" height="30" as="geometry" />
        </mxCell>
        <mxCell id="vqeSHZi6zr3soxNU2i5v-2" value="ep-sys-server" style="rounded=1;whiteSpace=wrap;html=1;fillColor=#dae8fc;strokeColor=#6c8ebf;" vertex="1" parent="WIyWlLk6GJQsqaUBKTNV-1">
          <mxGeometry x="540" y="171.88" width="120" height="30" as="geometry" />
        </mxCell>
        <mxCell id="vqeSHZi6zr3soxNU2i5v-3" value="ep-busi-server" style="rounded=1;whiteSpace=wrap;html=1;fillColor=#dae8fc;strokeColor=#6c8ebf;" vertex="1" parent="WIyWlLk6GJQsqaUBKTNV-1">
          <mxGeometry x="540" y="210.01" width="120" height="30" as="geometry" />
        </mxCell>
        <mxCell id="vqeSHZi6zr3soxNU2i5v-4" value="dao服务、api服务" style="text;html=1;strokeColor=none;fillColor=none;align=center;verticalAlign=middle;whiteSpace=wrap;rounded=0;" vertex="1" parent="WIyWlLk6GJQsqaUBKTNV-1">
          <mxGeometry x="550" y="110" width="106" height="20" as="geometry" />
        </mxCell>
      </root>
    </mxGraphModel>
  </diagram>
</mxfile>
